<?xml version="1.0" standalone="no"?>
<!DOCTYPE svg PUBLIC "-//W3C//DTD SVG 20010904//EN"
 "http://www.w3.org/TR/2001/REC-SVG-20010904/DTD/svg10.dtd">
<svg version="1.0" xmlns="http://www.w3.org/2000/svg"
 width="450.000000pt" height="450.000000pt" viewBox="0 0 450.000000 450.000000"
 preserveAspectRatio="xMidYMid meet">
<metadata>
Created by potrace 1.11, written by Peter Selinger 2001-2013
</metadata>
<g transform="translate(0.000000,450.000000) scale(0.100000,-0.100000)"
fill="#000000" stroke="none">
<path d="M2547 3214 c-1 -1 -24 -4 -52 -8 -123 -15 -214 -56 -288 -129 -50
-49 -102 -137 -113 -189 -13 -65 -16 -86 -20 -113 -5 -40 -5 -224 1 -255 18
-103 19 -109 33 -143 44 -106 67 -139 137 -192 45 -35 95 -58 175 -82 48 -14
136 -17 670 -19 338 -2 634 -6 657 -9 23 -3 57 -17 77 -30 19 -13 37 -21 40
-17 3 3 6 -2 6 -11 0 -9 3 -17 8 -17 14 0 36 -66 37 -110 0 -90 -74 -160 -188
-178 -33 -5 -255 -8 -495 -7 -384 1 -441 4 -468 18 -57 31 -94 87 -94 141 0
14 -7 25 -17 28 -30 6 -572 3 -579 -4 -7 -8 -7 -184 0 -215 3 -13 8 -32 10
-42 3 -11 10 -30 17 -43 7 -13 11 -23 10 -23 -2 0 3 -12 10 -27 7 -16 16 -28
21 -28 4 0 8 -4 8 -10 0 -15 61 -74 107 -103 23 -14 70 -36 105 -48 62 -21 70
-21 853 -22 435 0 811 3 837 7 122 17 236 71 304 143 44 46 90 140 108 222 20
85 15 342 -7 420 -50 173 -144 265 -322 317 -54 15 -126 17 -675 20 -599 3
-702 8 -736 36 -73 61 -96 106 -89 174 5 53 19 81 54 112 29 27 81 56 81 46 0
-4 6 -2 13 5 9 7 146 10 453 8 397 -2 442 -4 471 -20 41 -22 83 -67 83 -88 0
-9 5 -30 11 -46 l10 -31 291 2 292 1 7 26 c3 15 3 32 -1 39 -5 8 -4 23 0 36 5
12 6 24 3 27 -2 3 -6 29 -8 59 -5 85 -59 204 -112 248 -10 8 -33 27 -50 42
-33 27 -116 62 -175 74 -27 6 -1505 13 -1511 8z"/>
<path d="M327 3202 c-15 -3 -17 -23 -17 -183 0 -98 1 -182 3 -186 1 -5 184 -9
407 -10 223 -1 413 -2 423 -2 16 -1 17 -31 16 -488 0 -348 -4 -497 -12 -518
-33 -84 -83 -107 -244 -110 -65 -1 -134 2 -153 8 -73 19 -130 86 -130 151 0
14 -7 25 -17 28 -27 6 -571 3 -578 -3 -13 -13 -5 -206 10 -259 43 -142 134
-233 282 -281 66 -22 79 -22 538 -22 446 1 473 2 533 22 134 44 224 128 276
261 19 47 22 62 31 143 2 27 7 53 10 58 4 5 3 9 -2 9 -4 0 -8 14 -8 30 0 17 3
30 7 30 4 0 5 7 1 15 -8 23 -9 465 -1 465 4 0 5 7 2 15 -10 24 -10 465 -1 465
5 0 5 5 1 11 -4 7 -7 88 -6 180 0 151 -1 169 -16 170 -48 3 -1341 4 -1355 1z"/>
</g>
</svg>
